<?xml version="1.0" encoding="utf-8"?>
<!-- Generator: $$$/GeneralStr/196=Adobe Illustrator 27.6.0, SVG Export Plug-In . SVG Version: 6.00 Build 0)  -->
<svg version="1.1" id="Calque_1" xmlns="http://www.w3.org/2000/svg" xmlns:xlink="http://www.w3.org/1999/xlink" x="0px" y="0px"
	 viewBox="0 0 598 233" style="enable-background:new 0 0 598 233;" xml:space="preserve">
<style type="text/css">
	.st0{fill:#FEC800;}
	.st1{fill:#00A5A5;}
	.st2{fill:#010202;}
	.st3{fill:#E94A34;}
	.st4{fill:#FFFFFF;}
</style>
<path class="st0" d="M127,153.3c41.7,0,75.5-33.8,75.5-75.5S168.7,2.4,127,2.4S51.6,36.1,51.6,77.8S85.4,153.3,127,153.3"/>
<path class="st1" d="M36.3,30.9c-17.7,0-32,14.3-32,32v75.8c0,17.7,14.3,32,32,32H114c17.7,0,32-14.3,32-32V62.9
	c0-17.7-14.3-32-32-32H36.3z"/>
<path class="st2" d="M482.5,145.8V77.4h-21.4v68.4c0,4.3-3.5,7.7-7.7,7.7c-4.2,0-7.7-3.5-7.7-7.7v-41.3c0-16-13-29.1-29.1-29.1
	c-16,0-29.1,13-29.1,29.1v41.3c0,4.3-3.5,7.7-7.7,7.7c-4.2,0-7.7-3.5-7.7-7.7V77.4h-21.4v68.4c0,16,13,29.1,29.1,29.1
	c16,0,29.1-13,29.1-29.1v-41.3c0-4.2,3.5-7.7,7.7-7.7c4.2,0,7.7,3.5,7.7,7.7v41.3c0,16,13,29.1,29.1,29.1
	C469.5,174.9,482.5,161.8,482.5,145.8"/>
<path class="st2" d="M334.9,145.7V77.4h-21.4v68.4c0,4.2-3.5,7.7-7.7,7.7c-4.3,0-7.7-3.5-7.7-7.7v-41.3c0-16-13-29.1-29.1-29.1
	c-16,0-29.1,13-29.1,29.1v68.4h21.4v-68.4c0-4.2,3.5-7.7,7.7-7.7c4.2,0,7.7,3.5,7.7,7.7v41.3c0,16,13,29.1,29.1,29.1
	C321.9,174.8,334.9,161.8,334.9,145.7"/>
<path class="st2" d="M527.5,75.4h57.6v21.4h-57.6c-4.2,0-7.7,3.5-7.7,7.7c0,4.3,3.5,7.7,7.7,7.7h41.3c16,0,29.1,13,29.1,29.1
	c0,16-13,29.1-29.1,29.1h-68.4v-21.4h68.4c4.2,0,7.7-3.5,7.7-7.7c0-4.2-3.5-7.7-7.7-7.7h-41.3c-16,0-29.1-13-29.1-29.1
	C498.4,88.4,511.5,75.4,527.5,75.4"/>
<path class="st2" d="M586.9,213c0,0.8,0.6,1.5,1.5,1.5h8.3c0.7,0,1.3-0.6,1.3-1.4s-0.6-1.4-1.3-1.4h-6.7v-19.1
	c0-0.8-0.6-1.5-1.5-1.5c-0.9,0-1.5,0.7-1.5,1.5V213z M577.9,207.9c0,3.3-2,4.3-3.7,4.3c-1.7,0-3.7-1-3.7-4.3v-10.1
	c0-3.3,2-4.3,3.7-4.3c1.7,0,3.7,1,3.7,4.3V207.9z M574.2,214.9c2.2,0,6.7-1,6.7-7v-10.1c0-6-4.5-7-6.7-7c-2.2,0-6.7,1-6.7,7v10.1
	C567.5,213.9,572,214.9,574.2,214.9 M558.8,207.9c0,3.3-2,4.3-3.7,4.3c-1.7,0-3.7-1-3.7-4.3v-10.1c0-3.3,2-4.3,3.7-4.3
	c1.7,0,3.7,1,3.7,4.3V207.9z M555.1,214.9c2.2,0,6.7-1,6.7-7v-10.1c0-6-4.5-7-6.7-7c-2.2,0-6.7,1-6.7,7v10.1
	C548.4,213.9,552.9,214.9,555.1,214.9 M532.4,203.9h6.9v9.2c0,0.8,0.6,1.5,1.5,1.5c0.9,0,1.5-0.7,1.5-1.5v-20.5
	c0-0.8-0.6-1.5-1.5-1.5c-0.9,0-1.5,0.7-1.5,1.5v8.5h-6.9v-8.5c0-0.8-0.6-1.5-1.5-1.5c-0.9,0-1.5,0.7-1.5,1.5v20.5
	c0,0.8,0.6,1.5,1.5,1.5c0.9,0,1.5-0.7,1.5-1.5V203.9z M520.8,208.6c0,2.2-1.4,3.6-3.3,3.6c-1.7,0-3.3-1.2-3.3-4.3v-10.1
	c0-3.1,1.6-4.3,3.3-4.3c1.9,0,3.3,1.4,3.3,3.6c0,0.8,0.6,1.5,1.5,1.5c0.9,0,1.5-0.7,1.5-1.5c0-3.1-1.9-6.3-6.3-6.3
	c-2.2,0-6.3,1-6.3,7v10.1c0,6,4.1,7,6.3,7c4.4,0,6.3-3.2,6.3-6.3c0-0.8-0.6-1.5-1.5-1.5C521.5,207.1,520.8,207.7,520.8,208.6z
	 M505.6,197.2c0-3.1-2.1-6.3-6.5-6.3c-2.2,0-6.4,1-6.4,6.3c0,3.9,2.9,5.2,5.6,6.4v0c2.3,1.1,4.5,2.1,4.5,4.7c0,2.8-2,3.9-3.7,3.9
	c-2.2,0-3.7-1.8-3.7-3.6c0-0.8-0.6-1.5-1.5-1.5c-0.9,0-1.5,0.7-1.5,1.5c0,2.9,2.1,6.3,6.7,6.3c2.2,0,6.7-1,6.7-6.6
	c0-4.4-3.2-5.8-6-7.2c-2.1-1-4.1-1.9-4.1-3.9c0-2.5,1.7-3.6,3.4-3.6c1.9,0,3.5,1.4,3.5,3.6c0,0.8,0.6,1.5,1.5,1.5
	C505,198.7,505.6,198,505.6,197.2z M466.3,201.2V194h2.5c2.3,0,4.1,0.8,4.1,3.5c0,2.8-1.8,3.6-4.1,3.6H466.3z M466.3,211.7v-7.8h3
	c2.8,0,4.1,1.5,4.1,3.9c0,2.4-1.3,3.9-4.1,3.9H466.3z M463.4,213c0,0.8,0.6,1.5,1.5,1.5h4.5c3.5,0,7.1-1.2,7.1-6.6
	c0-2.8-1.2-4.7-2.8-5.4c1.4-0.8,2.3-2.5,2.3-4.8c0-5.1-3.9-6.2-7.1-6.2h-4c-0.9,0-1.5,0.7-1.5,1.5V213z M446.3,213
	c0,0.8,0.6,1.5,1.5,1.5h8.5c0.7,0,1.3-0.6,1.3-1.4s-0.6-1.4-1.3-1.4h-7v-7.8h5.8c0.7,0,1.3-0.6,1.3-1.4c0-0.8-0.6-1.4-1.3-1.4h-5.8
	V194h7c0.7,0,1.3-0.6,1.3-1.4s-0.6-1.4-1.3-1.4h-8.5c-0.9,0-1.5,0.7-1.5,1.5V213z M419.1,207.9c0,6.1,3.8,7,6,7
	c1.5,0,3.6-0.6,4.5-2.4c0.9,1.8,3,2.4,4.5,2.4c2.2,0,6-0.8,6-7v-15.3c0-0.8-0.6-1.5-1.5-1.5c-0.9,0-1.5,0.7-1.5,1.5v15.3
	c0,3.3-1.6,4.3-3,4.3c-1.3,0-3-1-3-4.3v-15.1c0-0.8-0.6-1.5-1.5-1.5c-0.9,0-1.5,0.7-1.5,1.5v15.1c0,3.3-1.7,4.3-3,4.3
	c-1.4,0-3-1-3-4.3v-15.3c0-0.8-0.6-1.5-1.5-1.5c-0.9,0-1.5,0.7-1.5,1.5V207.9z M391.3,213c0,0.8,0.6,1.5,1.5,1.5h8.5
	c0.7,0,1.3-0.6,1.3-1.4s-0.6-1.4-1.3-1.4h-7v-7.8h5.8c0.7,0,1.3-0.6,1.3-1.4c0-0.8-0.6-1.4-1.3-1.4h-5.8V194h7
	c0.7,0,1.3-0.6,1.3-1.4s-0.6-1.4-1.3-1.4h-8.5c-0.9,0-1.5,0.7-1.5,1.5V213z M381.6,213.1c0,0.8,0.6,1.5,1.5,1.5
	c0.8,0,1.5-0.7,1.5-1.5v-20.5c0-0.8-0.6-1.5-1.5-1.5c-0.9,0-1.5,0.7-1.5,1.5V213.1z M365.4,194h3.6c1.7,0,3.2,1,3.2,4.3v9.2
	c0,3.2-1.5,4.3-3.2,4.3h-3.6V194z M362.4,213c0,0.8,0.6,1.5,1.5,1.5h5.1c2.2,0,6.2-0.9,6.2-7v-9.2c0-6.1-4-7-6.2-7h-5.1
	c-0.9,0-1.5,0.7-1.5,1.5V213z M343.1,213.1c0,0.8,0.6,1.5,1.5,1.5c0.9,0,1.5-0.7,1.5-1.5v-15.3c0-3.3,1.9-4.3,3.6-4.3
	c1.7,0,3.6,1,3.6,4.3v15.3c0,0.8,0.6,1.5,1.5,1.5c0.9,0,1.5-0.7,1.5-1.5v-15.3c0-6.1-4.4-7-6.6-7s-6.6,0.8-6.6,7V213.1z
	 M327.2,201.2v-3.3c0-3.3,1.8-4.3,3.4-4.3c1.7,0,3.4,1,3.4,4.3v3.3H327.2z M337,197.8c0-6.1-4.2-7-6.4-7c-2.2,0-6.4,0.8-6.4,7v15.3
	c0,0.8,0.6,1.5,1.5,1.5c0.9,0,1.5-0.7,1.5-1.5v-9.2h6.9v9.2c0,0.8,0.6,1.5,1.5,1.5c0.9,0,1.5-0.7,1.5-1.5V197.8z M297.1,213.1
	c0,0.8,0.6,1.5,1.5,1.5c0.9,0,1.5-0.7,1.5-1.5v-15.3c0-3.3,1.6-4.3,3-4.3c1.3,0,3,1,3,4.3V213c0,0.8,0.6,1.5,1.5,1.5
	c0.9,0,1.5-0.7,1.5-1.5v-15.1c0-3.3,1.7-4.3,3-4.3c1.5,0,3,1,3,4.3v15.3c0,0.8,0.6,1.5,1.5,1.5c0.9,0,1.5-0.7,1.5-1.5v-15.3
	c0-6.1-3.8-7-6-7c-1.5,0-3.6,0.6-4.5,2.4c-0.9-1.8-3-2.4-4.5-2.4c-2.2,0-6,0.8-6,7V213.1z M281.5,201.9V194h2.7
	c2.8,0,4.1,1.6,4.1,3.9c0,2.4-1.3,3.9-4.1,3.9H281.5z M278.5,213.1c0,0.8,0.6,1.5,1.5,1.5c0.9,0,1.5-0.7,1.5-1.5v-8.5h2.2
	c2.2,0,4.2,0.9,4.3,3.6l0.1,4.9c0,0.8,0.6,1.5,1.5,1.5c0.9,0,1.5-0.7,1.5-1.5l-0.1-4.9c0-2.1-1.1-3.9-2.3-4.8
	c1.5-0.9,2.7-2.5,2.7-5.4c0-5.5-3.6-6.6-7.1-6.6H280c-0.9,0-1.5,0.7-1.5,1.5V213.1z M269.4,207.9c0,3.3-2,4.3-3.7,4.3
	c-1.7,0-3.7-1-3.7-4.3v-10.1c0-3.3,2-4.3,3.7-4.3c1.7,0,3.7,1,3.7,4.3V207.9z M265.7,214.9c2.2,0,6.7-1,6.7-7v-10.1c0-6-4.5-7-6.7-7
	c-2.2,0-6.7,1-6.7,7v10.1C259,213.9,263.5,214.9,265.7,214.9 M240,213.1c0,0.8,0.6,1.5,1.5,1.5c0.9,0,1.5-0.7,1.5-1.5v-15.3
	c0-3.3,1.9-4.3,3.6-4.3c1.7,0,3.6,1,3.6,4.3v15.3c0,0.8,0.6,1.5,1.5,1.5c0.9,0,1.5-0.7,1.5-1.5v-15.3c0-6.1-4.4-7-6.6-7
	s-6.6,0.8-6.6,7V213.1z"/>
<path class="st3" d="M142.2,59.7H64.6c-17.7,0-32,14.3-32,32v75.8c0,17.7,14.3,32,32,32l37.8,0l27.3,26.5c0.8,0.8,1.9,1.2,3.1,1.2
	c0.6,0,1.2-0.1,1.7-0.3c1.6-0.7,2.7-2.3,2.7-4.1v-23.3l5,0c17.7,0,32-14.3,32-32V91.7C174.3,74,159.9,59.7,142.2,59.7z"/>
<path class="st4" d="M129.4,144.4c-2,0-3.6-1.6-3.6-3.6v-22.3c0-7.6-6.1-13.7-13.7-13.7c-1.2,0-13.7,0-13.7,0v36
	c0,2-1.6,3.6-3.6,3.6c-2,0-3.6-1.6-3.6-3.6v-22.3c0-7.6-6.1-13.7-13.7-13.7s-13.7,6.1-13.7,13.7v35.1h10.1v-35.1
	c0-2,1.6-3.6,3.6-3.6s3.6,1.6,3.6,3.6v22.3c0,7.6,6.2,13.7,13.7,13.7c7.6,0,13.7-6.1,13.7-13.7v-22.9c0.3-1.7,1.8-3.1,3.6-3.1
	c2,0,3.6,1.6,3.6,3.6v22.3c0,7.6,6.2,13.7,13.7,13.7c7.6,0,13.7-6.1,13.7-13.7v-35.9H133l0,35.9C133,142.7,131.4,144.4,129.4,144.4"
	/>
</svg>
